<?xml version="1.0" encoding="utf-8"?>
<!-- Generator: Adobe Illustrator 16.0.0, SVG Export Plug-In . SVG Version: 6.00 Build 0)  -->
<!DOCTYPE svg PUBLIC "-//W3C//DTD SVG 1.1//EN" "http://www.w3.org/Graphics/SVG/1.1/DTD/svg11.dtd">
<svg version="1.1" id="Layer_1" xmlns="http://www.w3.org/2000/svg" xmlns:xlink="http://www.w3.org/1999/xlink" x="0px" y="0px"
	 width="931.8px" height="162.2px" viewBox="0 0 931.8 162.2" enable-background="new 0 0 931.8 162.2" xml:space="preserve">
<g id="GRAPHIC_DESIGN_SHADOW_2_">
	<g id="G_4_">
		
			<radialGradient id="SVGID_1_" cx="405.8945" cy="-212.8926" r="159.8636" gradientTransform="matrix(1 0 0 -1 -274 -81.7998)" gradientUnits="userSpaceOnUse">
			<stop  offset="0.3" style="stop-color:#CCCCCC"/>
			<stop  offset="0.6" style="stop-color:#C1C3C5"/>
			<stop  offset="1" style="stop-color:#999999"/>
		</radialGradient>
		<path fill="url(#SVGID_1_)" d="M119.254,145.645c-0.03-0.031-0.061-0.061-0.091-0.09c-3.286-3.299-5.158-8.037-5.158-13.553
			c0-10.683,7.06-18.461,17.829-18.461c6.401,0,10.545,1.873,13.95,5.43l-100-100c-3.405-3.557-7.549-5.431-13.95-5.431
			c-10.769,0-17.829,7.78-17.829,18.462c0,5.514,1.872,10.252,5.158,13.551c0.03,0.03,0.061,0.06,0.091,0.09L119.254,145.645z"/>
		
			<linearGradient id="SVGID_2_" gradientUnits="userSpaceOnUse" x1="362.604" y1="-220.1436" x2="362.604" y2="-120.1377" gradientTransform="matrix(1 0 0 -1 -274 -81.7998)">
			<stop  offset="0.3" style="stop-color:#CCCCCC"/>
			<stop  offset="0.6" style="stop-color:#C1C3C5"/>
			<stop  offset="1" style="stop-color:#999999"/>
		</linearGradient>
		<polygon fill="url(#SVGID_2_)" points="143.751,138.338 133.458,138.344 33.458,38.345 43.751,38.338 		"/>
		
			<linearGradient id="SVGID_3_" gradientUnits="userSpaceOnUse" x1="424.4385" y1="-196.1162" x2="324.0231" y2="-95.7008" gradientTransform="matrix(1 0 0 -1 -274 -81.7998)">
			<stop  offset="0.3" style="stop-color:#CCCCCC"/>
			<stop  offset="0.6" style="stop-color:#C1C3C5"/>
			<stop  offset="1" style="stop-color:#999999"/>
		</linearGradient>
		<polygon fill="url(#SVGID_3_)" points="145.784,118.971 154.678,109.247 54.678,9.246 45.784,18.972 		"/>
		
			<radialGradient id="SVGID_4_" cx="486.7368" cy="-151.4541" r="173.0471" gradientTransform="matrix(0.7071 0.7071 0.5657 -0.5657 -225.0539 -396.3563)" gradientUnits="userSpaceOnUse">
			<stop  offset="0" style="stop-color:#999999"/>
			<stop  offset="0.2032" style="stop-color:#A6A8AB"/>
			<stop  offset="0.4889" style="stop-color:#C1C3C5"/>
			<stop  offset="0.7" style="stop-color:#CCCCCC"/>
		</radialGradient>
		<path fill="url(#SVGID_4_)" d="M155.906,156.655c-7.457,3.881-15.651,5.504-24.071,5.504c-9.229,0.004-17.165-3.119-22.689-8.664
			l-100-100c5.524,5.545,13.46,8.667,22.689,8.664c8.42,0,16.615-1.624,24.071-5.504L155.906,156.655z"/>
		
			<linearGradient id="SVGID_5_" gradientUnits="userSpaceOnUse" x1="329.9063" y1="-173.4668" x2="429.9189" y2="-173.4668" gradientTransform="matrix(1 0 0 -1 -274 -81.7998)">
			<stop  offset="0" style="stop-color:#999999"/>
			<stop  offset="0.4" style="stop-color:#C1C3C5"/>
			<stop  offset="0.7" style="stop-color:#CCCCCC"/>
		</linearGradient>
		<polygon fill="url(#SVGID_5_)" points="155.906,156.655 155.919,126.679 55.919,26.679 55.906,56.655 		"/>
	</g>
	<g id="R_1_">
		
			<linearGradient id="SVGID_6_" gradientUnits="userSpaceOnUse" x1="361.7988" y1="-181.0313" x2="461.7988" y2="-181.0313" gradientTransform="matrix(1 0 0 -1 -274 -81.7998)">
			<stop  offset="0" style="stop-color:#999999"/>
			<stop  offset="0.4" style="stop-color:#C1C3C5"/>
			<stop  offset="0.7" style="stop-color:#CCCCCC"/>
		</linearGradient>
		<polygon fill="url(#SVGID_6_)" points="187.799,160.696 187.799,137.766 87.799,37.767 87.799,60.696 		"/>
		
			<linearGradient id="SVGID_7_" gradientUnits="userSpaceOnUse" x1="414.9199" y1="-219.5654" x2="414.9199" y2="-119.5669" gradientTransform="matrix(1 0 0 -1 -274 -81.7998)">
			<stop  offset="0.3" style="stop-color:#CCCCCC"/>
			<stop  offset="0.6" style="stop-color:#C1C3C5"/>
			<stop  offset="1" style="stop-color:#999999"/>
		</linearGradient>
		<polygon fill="url(#SVGID_7_)" points="187.799,137.766 194.042,137.766 94.042,37.767 87.799,37.767 		"/>
		
			<linearGradient id="SVGID_8_" gradientUnits="userSpaceOnUse" x1="437.6113" y1="-242.4951" x2="437.6113" y2="-142.4888" gradientTransform="matrix(1 0 0 -1 -274 -81.7998)">
			<stop  offset="0.3" style="stop-color:#CCCCCC"/>
			<stop  offset="0.6" style="stop-color:#C1C3C5"/>
			<stop  offset="1" style="stop-color:#999999"/>
		</linearGradient>
		<polygon fill="url(#SVGID_8_)" points="221.187,160.696 206.037,160.69 106.037,60.689 121.187,60.696 		"/>
		
			<linearGradient id="SVGID_9_" gradientUnits="userSpaceOnUse" x1="405.4775" y1="-242.4951" x2="405.4775" y2="-142.4956" gradientTransform="matrix(1 0 0 -1 -274 -81.7998)">
			<stop  offset="0.3" style="stop-color:#CCCCCC"/>
			<stop  offset="0.6" style="stop-color:#C1C3C5"/>
			<stop  offset="1" style="stop-color:#999999"/>
		</linearGradient>
		<polygon fill="url(#SVGID_9_)" points="187.799,160.696 175.157,160.696 75.157,60.696 87.799,60.696 		"/>
		
			<linearGradient id="SVGID_10_" gradientUnits="userSpaceOnUse" x1="361.7988" y1="-152.3418" x2="461.7988" y2="-152.3418" gradientTransform="matrix(1 0 0 -1 -274 -81.7998)">
			<stop  offset="0" style="stop-color:#999999"/>
			<stop  offset="0.4" style="stop-color:#BBBDBF"/>
			<stop  offset="0.7" style="stop-color:#CCCCCC"/>
		</linearGradient>
		<polygon fill="url(#SVGID_10_)" points="187.799,127.065 187.799,114.019 87.799,14.019 87.799,27.064 		"/>
		
			<linearGradient id="SVGID_11_" gradientUnits="userSpaceOnUse" x1="420.0215" y1="-198.0576" x2="420.0215" y2="-95.8188" gradientTransform="matrix(1 0 0 -1 -274 -81.7998)">
			<stop  offset="0.3" style="stop-color:#CCCCCC"/>
			<stop  offset="0.6" style="stop-color:#C1C3C5"/>
			<stop  offset="1" style="stop-color:#999999"/>
		</linearGradient>
		<path fill="url(#SVGID_11_)" d="M187.799,114.019h8.262c3.023-0.005,6.284,0.376,8.183,2.239l-100-100
			c-1.899-1.862-5.16-2.243-8.183-2.239h-8.262L187.799,114.019z"/>
		
			<linearGradient id="SVGID_12_" gradientUnits="userSpaceOnUse" x1="421.812" y1="-189.6626" x2="453.9666" y2="-171.0981" gradientTransform="matrix(1 0 0 -1 -274 -81.7998)">
			<stop  offset="0" style="stop-color:#999999"/>
			<stop  offset="0.4" style="stop-color:#C1C3C5"/>
			<stop  offset="0.7" style="stop-color:#CCCCCC"/>
		</linearGradient>
		<polygon fill="url(#SVGID_12_)" points="221.187,160.696 206.591,136.467 106.591,36.467 121.187,60.696 		"/>
		
			<radialGradient id="SVGID_13_" cx="557.0894" cy="-317.3442" r="157.5126" gradientTransform="matrix(0.7071 0.7071 0.3356 -0.3356 -183.6234 -479.6874)" gradientUnits="userSpaceOnUse">
			<stop  offset="0" style="stop-color:#999999"/>
			<stop  offset="0.1559" style="stop-color:#A6A8AB"/>
			<stop  offset="0.4" style="stop-color:#C1C3C5"/>
			<stop  offset="0.7" style="stop-color:#CCCCCC"/>
		</radialGradient>
		<path fill="url(#SVGID_13_)" d="M206.591,136.467c8.117-1.459,12.405-7.695,12.405-15.725c0-5.574-1.721-9.531-4.58-12.248
			l-100-100c2.859,2.717,4.58,6.672,4.58,12.248c0,8.029-4.289,14.266-12.405,15.724L206.591,136.467z"/>
	</g>
	<g id="A_1_">
		
			<linearGradient id="SVGID_14_" gradientUnits="userSpaceOnUse" x1="529.7993" y1="-214.6748" x2="408.624" y2="-158.1698" gradientTransform="matrix(1 0 0 -1 -274 -81.7998)">
			<stop  offset="0.3" style="stop-color:#CCCCCC"/>
			<stop  offset="0.6" style="stop-color:#C1C3C5"/>
			<stop  offset="1" style="stop-color:#999999"/>
		</linearGradient>
		<polygon fill="url(#SVGID_14_)" points="242.822,160.706 247.601,148.54 147.601,48.54 142.822,60.706 		"/>
		
			<linearGradient id="SVGID_15_" gradientUnits="userSpaceOnUse" x1="539.8296" y1="-189.0786" x2="418.2817" y2="-132.3999" gradientTransform="matrix(1 0 0 -1 -274 -81.7998)">
			<stop  offset="0.3" style="stop-color:#CCCCCC"/>
			<stop  offset="0.6" style="stop-color:#C1C3C5"/>
			<stop  offset="1" style="stop-color:#999999"/>
		</linearGradient>
		<polygon fill="url(#SVGID_15_)" points="258.541,120.02 251.572,137.856 151.572,37.856 158.541,20.02 		"/>
		
			<linearGradient id="SVGID_16_" gradientUnits="userSpaceOnUse" x1="477.9712" y1="-174.3813" x2="523.2698" y2="-153.2583" gradientTransform="matrix(1 0 0 -1 -274 -81.7998)">
			<stop  offset="0" style="stop-color:#999999"/>
			<stop  offset="0.4" style="stop-color:#C1C3C5"/>
			<stop  offset="0.7" style="stop-color:#CCCCCC"/>
		</linearGradient>
		<polygon fill="url(#SVGID_16_)" points="289.104,160.7 264.136,103.34 164.136,3.34 189.104,60.7 		"/>
		
			<linearGradient id="SVGID_17_" gradientUnits="userSpaceOnUse" x1="459.8477" y1="-242.5049" x2="459.8477" y2="-142.5" gradientTransform="matrix(1 0 0 -1 -274 -81.7998)">
			<stop  offset="0.3" style="stop-color:#CCCCCC"/>
			<stop  offset="0.6" style="stop-color:#C1C3C5"/>
			<stop  offset="1" style="stop-color:#999999"/>
		</linearGradient>
		<polygon fill="url(#SVGID_17_)" points="242.822,160.706 228.874,160.7 128.874,60.7 142.822,60.706 		"/>
		
			<linearGradient id="SVGID_18_" gradientUnits="userSpaceOnUse" x1="482.7456" y1="-230.3447" x2="482.7456" y2="-130.3398" gradientTransform="matrix(1 0 0 -1 -274 -81.7998)">
			<stop  offset="0.3" style="stop-color:#CCCCCC"/>
			<stop  offset="0.6" style="stop-color:#C1C3C5"/>
			<stop  offset="1" style="stop-color:#999999"/>
		</linearGradient>
		<polygon fill="url(#SVGID_18_)" points="269.89,148.545 247.601,148.54 147.601,48.54 169.89,48.546 		"/>
		
			<linearGradient id="SVGID_19_" gradientUnits="userSpaceOnUse" x1="505.9644" y1="-242.499" x2="505.9644" y2="-142.5" gradientTransform="matrix(1 0 0 -1 -274 -81.7998)">
			<stop  offset="0.3" style="stop-color:#CCCCCC"/>
			<stop  offset="0.6" style="stop-color:#C1C3C5"/>
			<stop  offset="1" style="stop-color:#999999"/>
		</linearGradient>
		<polygon fill="url(#SVGID_19_)" points="289.104,160.7 274.825,160.7 174.825,60.7 189.104,60.7 		"/>
	</g>
	<g id="P_2_">
		
			<linearGradient id="SVGID_20_" gradientUnits="userSpaceOnUse" x1="531.3081" y1="-242.499" x2="531.3081" y2="-142.5" gradientTransform="matrix(1 0 0 -1 -274 -81.7998)">
			<stop  offset="0.3" style="stop-color:#CCCCCC"/>
			<stop  offset="0.6" style="stop-color:#C1C3C5"/>
			<stop  offset="1" style="stop-color:#999999"/>
		</linearGradient>
		<polygon fill="url(#SVGID_20_)" points="313.63,160.7 300.987,160.7 200.987,60.7 213.63,60.7 		"/>
		
			<linearGradient id="SVGID_21_" gradientUnits="userSpaceOnUse" x1="487.6304" y1="-181.3188" x2="587.6304" y2="-181.3188" gradientTransform="matrix(1 0 0 -1 -274 -81.7998)">
			<stop  offset="0" style="stop-color:#999999"/>
			<stop  offset="0.4" style="stop-color:#C1C3C5"/>
			<stop  offset="0.7" style="stop-color:#CCCCCC"/>
		</linearGradient>
		<polygon fill="url(#SVGID_21_)" points="313.63,160.7 313.63,138.338 213.63,38.338 213.63,60.7 		"/>
		
			<linearGradient id="SVGID_22_" gradientUnits="userSpaceOnUse" x1="542.2495" y1="-220.1377" x2="542.2495" y2="-120.1377" gradientTransform="matrix(1 0 0 -1 -274 -81.7998)">
			<stop  offset="0.3" style="stop-color:#CCCCCC"/>
			<stop  offset="0.6" style="stop-color:#C1C3C5"/>
			<stop  offset="1" style="stop-color:#999999"/>
		</linearGradient>
		<polygon fill="url(#SVGID_22_)" points="322.868,138.338 313.63,138.338 213.63,38.338 222.868,38.338 		"/>
		
			<linearGradient id="SVGID_23_" gradientUnits="userSpaceOnUse" x1="487.6304" y1="-152.6353" x2="587.6304" y2="-152.6353" gradientTransform="matrix(1 0 0 -1 -274 -81.7998)">
			<stop  offset="0" style="stop-color:#999999"/>
			<stop  offset="0.4" style="stop-color:#C1C3C5"/>
			<stop  offset="0.7" style="stop-color:#CCCCCC"/>
		</linearGradient>
		<polygon fill="url(#SVGID_23_)" points="313.63,114.03 313.63,127.642 213.63,27.642 213.63,14.029 		"/>
		
			<linearGradient id="SVGID_24_" gradientUnits="userSpaceOnUse" x1="545.5347" y1="-198.374" x2="545.5347" y2="-95.8296" gradientTransform="matrix(1 0 0 -1 -274 -81.7998)">
			<stop  offset="0.3" style="stop-color:#CCCCCC"/>
			<stop  offset="0.6" style="stop-color:#C1C3C5"/>
			<stop  offset="1" style="stop-color:#999999"/>
		</linearGradient>
		<path fill="url(#SVGID_24_)" d="M329.438,116.575c-2.096-2.16-5.978-2.545-9.329-2.545h-6.479l-100-100h6.479
			c3.351,0,7.233,0.385,9.329,2.545L329.438,116.575z"/>
		
			<radialGradient id="SVGID_25_" cx="679.438" cy="-144.1069" r="156.0285" gradientTransform="matrix(0.7071 0.7071 0.5657 -0.5657 -172.7687 -535.8099)" gradientUnits="userSpaceOnUse">
			<stop  offset="0" style="stop-color:#999999"/>
			<stop  offset="0.0857" style="stop-color:#A6A8AB"/>
			<stop  offset="0.4" style="stop-color:#C1C3C5"/>
			<stop  offset="0.7" style="stop-color:#CCCCCC"/>
		</radialGradient>
		<path fill="url(#SVGID_25_)" d="M322.868,138.338c12.075,0,21.247-4.131,21.22-17.598c0.011-5.523-1.616-9.431-4.353-12.123
			l-100-100c2.736,2.694,4.363,6.601,4.353,12.123c0.026,13.467-9.146,17.598-21.22,17.598L322.868,138.338z"/>
	</g>
	<g id="H_2_">
		
			<linearGradient id="SVGID_26_" gradientUnits="userSpaceOnUse" x1="646.8306" y1="-180.1045" x2="546.8306" y2="-180.1045" gradientTransform="matrix(1 0 0 -1 -274 -81.7998)">
			<stop  offset="0.3" style="stop-color:#CCCCCC"/>
			<stop  offset="0.6" style="stop-color:#C1C3C5"/>
			<stop  offset="1" style="stop-color:#999999"/>
		</linearGradient>
		<polygon fill="url(#SVGID_26_)" points="372.831,135.911 372.831,160.7 272.831,60.7 272.831,35.91 		"/>
		
			<linearGradient id="SVGID_27_" gradientUnits="userSpaceOnUse" x1="546.8169" y1="-145.8228" x2="646.8169" y2="-145.8228" gradientTransform="matrix(1 0 0 -1 -274 -81.7998)">
			<stop  offset="0" style="stop-color:#999999"/>
			<stop  offset="0.4" style="stop-color:#C1C3C5"/>
			<stop  offset="0.7" style="stop-color:#CCCCCC"/>
		</linearGradient>
		<polygon fill="url(#SVGID_27_)" points="372.817,103.327 372.817,124.719 272.817,24.719 272.817,3.327 		"/>
		
			<linearGradient id="SVGID_28_" gradientUnits="userSpaceOnUse" x1="609.104" y1="-217.7158" x2="609.104" y2="-117.71" gradientTransform="matrix(1 0 0 -1 -274 -81.7998)">
			<stop  offset="0.3" style="stop-color:#CCCCCC"/>
			<stop  offset="0.6" style="stop-color:#C1C3C5"/>
			<stop  offset="1" style="stop-color:#999999"/>
		</linearGradient>
		<polygon fill="url(#SVGID_28_)" points="372.831,135.911 397.376,135.917 297.376,35.917 272.831,35.91 		"/>
		
			<linearGradient id="SVGID_29_" gradientUnits="userSpaceOnUse" x1="590.5093" y1="-242.499" x2="590.5093" y2="-142.5" gradientTransform="matrix(1 0 0 -1 -274 -81.7998)">
			<stop  offset="0.3" style="stop-color:#CCCCCC"/>
			<stop  offset="0.6" style="stop-color:#C1C3C5"/>
			<stop  offset="1" style="stop-color:#999999"/>
		</linearGradient>
		<polygon fill="url(#SVGID_29_)" points="372.831,160.7 360.188,160.7 260.188,60.7 272.831,60.7 		"/>
		
			<linearGradient id="SVGID_30_" gradientUnits="userSpaceOnUse" x1="627.6987" y1="-242.5127" x2="627.6987" y2="-142.5059" gradientTransform="matrix(1 0 0 -1 -274 -81.7998)">
			<stop  offset="0.3" style="stop-color:#CCCCCC"/>
			<stop  offset="0.6" style="stop-color:#C1C3C5"/>
			<stop  offset="1" style="stop-color:#999999"/>
		</linearGradient>
		<polygon fill="url(#SVGID_30_)" points="410.02,160.713 397.376,160.706 297.376,60.706 310.02,60.714 		"/>
		
			<linearGradient id="SVGID_31_" gradientUnits="userSpaceOnUse" x1="584.02" y1="-163.8228" x2="684.019" y2="-163.8228" gradientTransform="matrix(1 0 0 -1 -274 -81.7998)">
			<stop  offset="0" style="stop-color:#999999"/>
			<stop  offset="0.4" style="stop-color:#C1C3C5"/>
			<stop  offset="0.7" style="stop-color:#CCCCCC"/>
		</linearGradient>
		<polygon fill="url(#SVGID_31_)" points="410.02,160.713 410.02,103.333 310.02,3.333 310.02,60.714 		"/>
	</g>
	<g id="I_2_">
		
			<linearGradient id="SVGID_32_" gradientUnits="userSpaceOnUse" x1="659.9849" y1="-242.5049" x2="659.9849" y2="-142.5" gradientTransform="matrix(1 0 0 -1 -274 -81.7998)">
			<stop  offset="0.3" style="stop-color:#CCCCCC"/>
			<stop  offset="0.6" style="stop-color:#C1C3C5"/>
			<stop  offset="1" style="stop-color:#999999"/>
		</linearGradient>
		<polygon fill="url(#SVGID_32_)" points="442.313,160.706 429.656,160.7 329.656,60.7 342.312,60.706 		"/>
		
			<linearGradient id="SVGID_33_" gradientUnits="userSpaceOnUse" x1="616.312" y1="-163.8228" x2="716.312" y2="-163.8228" gradientTransform="matrix(1 0 0 -1 -274 -81.7998)">
			<stop  offset="0" style="stop-color:#999999"/>
			<stop  offset="0.4" style="stop-color:#C1C3C5"/>
			<stop  offset="0.7" style="stop-color:#CCCCCC"/>
		</linearGradient>
		<polygon fill="url(#SVGID_33_)" points="442.313,160.706 442.313,103.34 342.312,3.34 342.312,60.706 		"/>
	</g>
	<g id="C_2_">
		
			<linearGradient id="SVGID_34_" gradientUnits="userSpaceOnUse" x1="775.77" y1="-198.772" x2="680.8633" y2="-93.3673" gradientTransform="matrix(1 0 0 -1 -274 -81.7998)">
			<stop  offset="0.3" style="stop-color:#CCCCCC"/>
			<stop  offset="0.6" style="stop-color:#C1C3C5"/>
			<stop  offset="1" style="stop-color:#999999"/>
		</linearGradient>
		<polygon fill="url(#SVGID_34_)" points="509.179,110.301 499.455,118.239 399.454,18.239 409.18,10.302 		"/>
		
			<radialGradient id="SVGID_35_" cx="765.7222" cy="-211.5269" r="159.8336" gradientTransform="matrix(1 0 0 -1 -274 -81.7998)" gradientUnits="userSpaceOnUse">
			<stop  offset="0.3" style="stop-color:#CCCCCC"/>
			<stop  offset="0.6" style="stop-color:#C1C3C5"/>
			<stop  offset="1" style="stop-color:#999999"/>
		</radialGradient>
		<path fill="url(#SVGID_35_)" d="M499.455,118.239c-2.508-2.996-6.164-4.697-10.848-4.697c-9.568-0.006-16.615,7.779-16.615,18.47
			c0,5.715,2.008,10.594,5.271,13.901l-100-100c-3.264-3.309-5.271-8.188-5.271-13.903c0-10.688,7.046-18.475,16.615-18.469
			c4.685,0,8.34,1.702,10.848,4.698L499.455,118.239z"/>
		
			<radialGradient id="SVGID_36_" cx="663.5024" cy="-123.6431" r="163.8474" gradientTransform="matrix(1 0 0 -1 -274 -81.7998)" gradientUnits="userSpaceOnUse">
			<stop  offset="0" style="stop-color:#999999"/>
			<stop  offset="0.4" style="stop-color:#C1C3C5"/>
			<stop  offset="0.7" style="stop-color:#CCCCCC"/>
		</radialGradient>
		<path fill="url(#SVGID_36_)" d="M510.552,152.188c-4.777,6.811-12.881,9.971-20.744,9.977c-9.229,0-17.168-3.123-22.691-8.674
			l-100-100c5.524,5.55,13.464,8.674,22.691,8.674c7.865-0.006,15.967-3.167,20.745-9.978L510.552,152.188z"/>
	</g>
	<g id="D_1_">
		
			<linearGradient id="SVGID_37_" gradientUnits="userSpaceOnUse" x1="824.1353" y1="-242.501" x2="824.1353" y2="-142.4956" gradientTransform="matrix(1 0 0 -1 -274 -81.7998)">
			<stop  offset="0.3" style="stop-color:#CCCCCC"/>
			<stop  offset="0.6" style="stop-color:#C1C3C5"/>
			<stop  offset="1" style="stop-color:#999999"/>
		</linearGradient>
		<polygon fill="url(#SVGID_37_)" points="610.468,160.702 589.8,160.696 489.8,60.696 510.468,60.702 		"/>
		
			<linearGradient id="SVGID_38_" gradientUnits="userSpaceOnUse" x1="776.4429" y1="-163.7998" x2="876.4429" y2="-163.7998" gradientTransform="matrix(1 0 0 -1 -274 -81.7998)">
			<stop  offset="0" style="stop-color:#999999"/>
			<stop  offset="0.4" style="stop-color:#C1C3C5"/>
			<stop  offset="0.7" style="stop-color:#CCCCCC"/>
		</linearGradient>
		<polygon fill="url(#SVGID_38_)" points="602.443,114.976 602.443,149.024 502.443,49.023 502.443,14.976 		"/>
		
			<linearGradient id="SVGID_39_" gradientUnits="userSpaceOnUse" x1="837.7622" y1="-201.9697" x2="837.7622" y2="-96.7759" gradientTransform="matrix(1 0 0 -1 -274 -81.7998)">
			<stop  offset="0.3" style="stop-color:#CCCCCC"/>
			<stop  offset="0.6" style="stop-color:#C1C3C5"/>
			<stop  offset="1" style="stop-color:#999999"/>
		</linearGradient>
		<path fill="url(#SVGID_39_)" d="M602.443,114.976l7.457,0.013c6.039,0.008,11.539,1.689,15.18,5.182l-100-100
			c-3.641-3.492-9.141-5.175-15.18-5.182l-7.457-0.013L602.443,114.976z"/>
		
			<radialGradient id="SVGID_40_" cx="969.8823" cy="-147.7725" r="169.9487" gradientTransform="matrix(0.7071 0.7071 0.5657 -0.5657 -85.6252 -739.5912)" gradientUnits="userSpaceOnUse">
			<stop  offset="0" style="stop-color:#999999"/>
			<stop  offset="0.2032" style="stop-color:#A6A8AB"/>
			<stop  offset="0.4519" style="stop-color:#C1C3C5"/>
			<stop  offset="0.7" style="stop-color:#CCCCCC"/>
		</radialGradient>
		<path fill="url(#SVGID_40_)" d="M610.468,160.702c17.09-0.006,32.238-9.961,32.238-28.518c0-8.84-2.738-15.352-7.285-19.93
			l-100-100c4.547,4.577,7.285,11.089,7.285,19.929c0,18.556-15.148,28.512-32.238,28.518L610.468,160.702z"/>
	</g>
	<g id="E_1_">
		
			<linearGradient id="SVGID_41_" gradientUnits="userSpaceOnUse" x1="846.5386" y1="-174.9937" x2="946.5522" y2="-174.9937" gradientTransform="matrix(1 0 0 -1 -274 -81.7998)">
			<stop  offset="0" style="stop-color:#999999"/>
			<stop  offset="0.4" style="stop-color:#C1C3C5"/>
			<stop  offset="0.7" style="stop-color:#CCCCCC"/>
		</linearGradient>
		<polygon fill="url(#SVGID_41_)" points="672.539,137.358 672.552,149.03 572.552,49.03 572.539,37.358 		"/>
		
			<linearGradient id="SVGID_42_" gradientUnits="userSpaceOnUse" x1="909.7231" y1="-196.7881" x2="909.7231" y2="-96.7827" gradientTransform="matrix(1 0 0 -1 -274 -81.7998)">
			<stop  offset="0.3" style="stop-color:#CCCCCC"/>
			<stop  offset="0.6" style="stop-color:#C1C3C5"/>
			<stop  offset="1" style="stop-color:#999999"/>
		</linearGradient>
		<polygon fill="url(#SVGID_42_)" points="698.892,114.983 672.552,114.989 572.552,14.989 598.892,14.983 		"/>
		
			<linearGradient id="SVGID_43_" gradientUnits="userSpaceOnUse" x1="871.4136" y1="-163.3242" x2="971.4409" y2="-163.3242" gradientTransform="matrix(1 0 0 -1 -274 -81.7998)">
			<stop  offset="0" style="stop-color:#999999"/>
			<stop  offset="0.4" style="stop-color:#C1C3C5"/>
			<stop  offset="0.7" style="stop-color:#CCCCCC"/>
		</linearGradient>
		<polygon fill="url(#SVGID_43_)" points="697.414,125.692 697.441,137.358 597.441,37.358 597.414,25.691 		"/>
		
			<linearGradient id="SVGID_44_" gradientUnits="userSpaceOnUse" x1="846.5522" y1="-152.1401" x2="946.564" y2="-152.1401" gradientTransform="matrix(1 0 0 -1 -274 -81.7998)">
			<stop  offset="0" style="stop-color:#999999"/>
			<stop  offset="0.4" style="stop-color:#C1C3C5"/>
			<stop  offset="0.7" style="stop-color:#CCCCCC"/>
		</linearGradient>
		<polygon fill="url(#SVGID_44_)" points="672.552,114.989 672.564,125.692 572.564,25.691 572.552,14.989 		"/>
		
			<linearGradient id="SVGID_45_" gradientUnits="userSpaceOnUse" x1="908.9907" y1="-219.1572" x2="908.9907" y2="-119.1577" gradientTransform="matrix(1 0 0 -1 -274 -81.7998)">
			<stop  offset="0.3" style="stop-color:#CCCCCC"/>
			<stop  offset="0.6" style="stop-color:#C1C3C5"/>
			<stop  offset="1" style="stop-color:#999999"/>
		</linearGradient>
		<polygon fill="url(#SVGID_45_)" points="697.441,137.358 672.539,137.358 572.539,37.358 597.441,37.358 		"/>
		
			<linearGradient id="SVGID_46_" gradientUnits="userSpaceOnUse" x1="872.8921" y1="-140.9565" x2="972.8921" y2="-140.9565" gradientTransform="matrix(1 0 0 -1 -274 -81.7998)">
			<stop  offset="0" style="stop-color:#999999"/>
			<stop  offset="0.4" style="stop-color:#C1C3C5"/>
			<stop  offset="0.7" style="stop-color:#CCCCCC"/>
		</linearGradient>
		<polygon fill="url(#SVGID_46_)" points="698.892,103.331 698.892,114.983 598.892,14.983 598.892,3.33 		"/>
		
			<linearGradient id="SVGID_47_" gradientUnits="userSpaceOnUse" x1="904.1265" y1="-242.501" x2="904.1265" y2="-142.4956" gradientTransform="matrix(1 0 0 -1 -274 -81.7998)">
			<stop  offset="0.3" style="stop-color:#CCCCCC"/>
			<stop  offset="0.6" style="stop-color:#C1C3C5"/>
			<stop  offset="1" style="stop-color:#999999"/>
		</linearGradient>
		<polygon fill="url(#SVGID_47_)" points="700.343,160.696 659.908,160.702 559.908,60.702 600.343,60.696 		"/>
		
			<linearGradient id="SVGID_48_" gradientUnits="userSpaceOnUse" x1="874.3433" y1="-186.6626" x2="974.3433" y2="-186.6626" gradientTransform="matrix(1 0 0 -1 -274 -81.7998)">
			<stop  offset="0" style="stop-color:#999999"/>
			<stop  offset="0.4" style="stop-color:#C1C3C5"/>
			<stop  offset="0.7" style="stop-color:#CCCCCC"/>
		</linearGradient>
		<polygon fill="url(#SVGID_48_)" points="700.343,160.696 700.343,149.03 600.343,49.03 600.343,60.696 		"/>
	</g>
	<g id="S_1_">
		
			<linearGradient id="SVGID_49_" gradientUnits="userSpaceOnUse" x1="897.3257" y1="-177.5425" x2="998.5151" y2="-177.5425" gradientTransform="matrix(1 0 0 -1 -274 -81.7998)">
			<stop  offset="0" style="stop-color:#999999"/>
			<stop  offset="0.4" style="stop-color:#C1C3C5"/>
			<stop  offset="0.7" style="stop-color:#CCCCCC"/>
		</linearGradient>
		<path fill="url(#SVGID_49_)" d="M724.515,146.422c-0.426-0.426-0.824-0.879-1.189-1.359l-100-100
			c0.365,0.481,0.764,0.935,1.189,1.359L724.515,146.422z"/>
		
			<linearGradient id="SVGID_50_" gradientUnits="userSpaceOnUse" x1="947.9604" y1="-243.9639" x2="947.9604" y2="-136.7329" gradientTransform="matrix(1 0 0 -1 -274 -81.7998)">
			<stop  offset="0.3" style="stop-color:#CCCCCC"/>
			<stop  offset="0.6" style="stop-color:#C1C3C5"/>
			<stop  offset="1" style="stop-color:#999999"/>
		</linearGradient>
		<path fill="url(#SVGID_50_)" d="M733.593,162.165c-7.365-0.006-13.832-2.209-19.268-7.231l-100-100
			c5.436,5.022,11.9,7.226,19.268,7.232L733.593,162.165z"/>
		
			<radialGradient id="SVGID_51_" cx="1013.9058" cy="-200.7422" r="150.9309" gradientTransform="matrix(1 0 0 -1 -274 -81.7998)" gradientUnits="userSpaceOnUse">
			<stop  offset="0.3" style="stop-color:#CCCCCC"/>
			<stop  offset="0.6" style="stop-color:#C1C3C5"/>
			<stop  offset="1" style="stop-color:#999999"/>
		</radialGradient>
		<path fill="url(#SVGID_51_)" d="M746.498,116.801c-2.143-2.217-5.82-3.254-8.684-3.26c-3.563,0-8.498,1.608-8.498,5.918
			c0,1.488,0.537,2.629,1.457,3.549l-100-100c-0.92-0.919-1.457-2.059-1.457-3.548c0-4.309,4.936-5.919,8.498-5.919
			c2.863,0.006,6.541,1.043,8.684,3.26L746.498,116.801z"/>
		
			<linearGradient id="SVGID_52_" gradientUnits="userSpaceOnUse" x1="1025.5171" y1="-194.6069" x2="925.1176" y2="-94.2075" gradientTransform="matrix(1 0 0 -1 -274 -81.7998)">
			<stop  offset="0.3" style="stop-color:#CCCCCC"/>
			<stop  offset="0.6" style="stop-color:#C1C3C5"/>
			<stop  offset="1" style="stop-color:#999999"/>
		</linearGradient>
		<polygon fill="url(#SVGID_52_)" points="755.658,107.866 746.974,117.348 646.974,17.349 655.658,7.866 		"/>
		
			<linearGradient id="SVGID_53_" gradientUnits="userSpaceOnUse" x1="954.7495" y1="-222.6084" x2="954.7495" y2="-112.2026" gradientTransform="matrix(1 0 0 -1 -274 -81.7998)">
			<stop  offset="0.3" style="stop-color:#CCCCCC"/>
			<stop  offset="0.6" style="stop-color:#C1C3C5"/>
			<stop  offset="1" style="stop-color:#999999"/>
		</linearGradient>
		<path fill="url(#SVGID_53_)" d="M741.56,140.809c-4.139-4.154-15.633-4.357-21.623-10.406l-100-100
			c5.99,6.048,17.484,6.252,21.623,10.406L741.56,140.809z"/>
		
			<radialGradient id="SVGID_54_" cx="916.6655" cy="-130.5459" r="154.1342" gradientTransform="matrix(1 0 0 -1 -274 -81.7998)" gradientUnits="userSpaceOnUse">
			<stop  offset="0" style="stop-color:#999999"/>
			<stop  offset="0.0649" style="stop-color:#A6A8AB"/>
			<stop  offset="0.3366" style="stop-color:#C1C3C5"/>
			<stop  offset="0.7" style="stop-color:#CCCCCC"/>
		</radialGradient>
		<path fill="url(#SVGID_54_)" d="M733.593,162.165c11.85-0.006,22.143-6.09,22.143-18.891c0-4.943-1.6-8.264-4.012-10.613l-100-100
			c2.412,2.351,4.012,5.67,4.012,10.613c0,12.802-10.293,18.886-22.143,18.892L733.593,162.165z"/>
	</g>
	<g id="I_1_">
		
			<linearGradient id="SVGID_55_" gradientUnits="userSpaceOnUse" x1="1003.4224" y1="-242.5049" x2="1003.4224" y2="-142.5" gradientTransform="matrix(1 0 0 -1 -274 -81.7998)">
			<stop  offset="0.3" style="stop-color:#CCCCCC"/>
			<stop  offset="0.6" style="stop-color:#C1C3C5"/>
			<stop  offset="1" style="stop-color:#999999"/>
		</linearGradient>
		<polygon fill="url(#SVGID_55_)" points="785.75,160.706 773.093,160.7 673.093,60.7 685.75,60.706 		"/>
		
			<linearGradient id="SVGID_56_" gradientUnits="userSpaceOnUse" x1="959.7495" y1="-163.8228" x2="1062.6055" y2="-163.8228" gradientTransform="matrix(1 0 0 -1 -274 -81.7998)">
			<stop  offset="0" style="stop-color:#999999"/>
			<stop  offset="0.4" style="stop-color:#C1C3C5"/>
			<stop  offset="0.7" style="stop-color:#CCCCCC"/>
		</linearGradient>
		<polygon fill="url(#SVGID_56_)" points="785.75,160.706 785.75,103.34 685.75,3.34 685.75,60.706 		"/>
	</g>
	<g id="G_1_">
		
			<radialGradient id="SVGID_57_" cx="1110.645" cy="-216.7666" r="161.8163" gradientTransform="matrix(1 0 0 -1 -274 -81.7998)" gradientUnits="userSpaceOnUse">
			<stop  offset="0.3" style="stop-color:#CCCCCC"/>
			<stop  offset="0.6" style="stop-color:#C1C3C5"/>
			<stop  offset="1" style="stop-color:#999999"/>
		</radialGradient>
		<path fill="url(#SVGID_57_)" d="M820.671,145.686c-0.029-0.029-0.061-0.061-0.09-0.09c-3.287-3.299-5.158-8.037-5.158-13.551
			c0-10.683,7.061-18.463,17.828-18.463c6.4,0,10.545,1.875,13.949,5.432l-100-100c-3.404-3.557-7.549-5.431-13.949-5.431
			c-10.768,0-17.828,7.78-17.828,18.462c0,5.514,1.871,10.252,5.158,13.551c0.029,0.03,0.061,0.06,0.09,0.09L820.671,145.686z"/>
		
			<linearGradient id="SVGID_58_" gradientUnits="userSpaceOnUse" x1="1008.8765" y1="-170.1831" x2="1119.1694" y2="-170.1831" gradientTransform="matrix(1 0 0 -1 -274 -81.7998)">
			<stop  offset="0" style="stop-color:#999999"/>
			<stop  offset="0.4" style="stop-color:#C1C3C5"/>
			<stop  offset="0.7" style="stop-color:#CCCCCC"/>
		</linearGradient>
		<polygon fill="url(#SVGID_58_)" points="845.169,138.379 834.876,138.387 734.876,38.387 745.169,38.38 		"/>
		
			<linearGradient id="SVGID_59_" gradientUnits="userSpaceOnUse" x1="1125.8569" y1="-196.1577" x2="1025.4408" y2="-95.7417" gradientTransform="matrix(1 0 0 -1 -274 -81.7998)">
			<stop  offset="0.3" style="stop-color:#CCCCCC"/>
			<stop  offset="0.6" style="stop-color:#C1C3C5"/>
			<stop  offset="1" style="stop-color:#999999"/>
		</linearGradient>
		<polygon fill="url(#SVGID_59_)" points="847.201,119.014 856.095,109.288 756.095,9.288 747.201,19.014 		"/>
		
			<linearGradient id="SVGID_60_" gradientUnits="userSpaceOnUse" x1="1031.3237" y1="-173.5083" x2="1127.1281" y2="-173.5083" gradientTransform="matrix(1 0 0 -1 -274 -81.7998)">
			<stop  offset="0" style="stop-color:#999999"/>
			<stop  offset="0.4" style="stop-color:#C1C3C5"/>
			<stop  offset="0.7" style="stop-color:#CCCCCC"/>
		</linearGradient>
		<polygon fill="url(#SVGID_60_)" points="857.324,156.696 857.335,126.721 757.335,26.721 757.324,56.697 		"/>
		
			<radialGradient id="SVGID_61_" cx="1186.9048" cy="-151.8315" r="174.0469" gradientTransform="matrix(0.7071 0.7071 0.5657 -0.5657 -19.7648 -891.2865)" gradientUnits="userSpaceOnUse">
			<stop  offset="0" style="stop-color:#999999"/>
			<stop  offset="0.2032" style="stop-color:#A6A8AB"/>
			<stop  offset="0.5001" style="stop-color:#C1C3C5"/>
			<stop  offset="0.7" style="stop-color:#CCCCCC"/>
		</radialGradient>
		<path fill="url(#SVGID_61_)" d="M857.324,156.696c-7.457,3.881-15.652,5.504-24.072,5.504c-9.229,0.004-17.164-3.117-22.689-8.662
			l-100-100c5.525,5.545,13.461,8.667,22.689,8.664c8.42,0,16.615-1.624,24.072-5.504L857.324,156.696z"/>
	</g>
	<g id="N_1_">
		
			<linearGradient id="SVGID_62_" gradientUnits="userSpaceOnUse" x1="1106.8628" y1="-242.5166" x2="1106.8628" y2="-142.498" gradientTransform="matrix(1 0 0 -1 -274 -81.7998)">
			<stop  offset="0.3" style="stop-color:#CCCCCC"/>
			<stop  offset="0.6" style="stop-color:#C1C3C5"/>
			<stop  offset="1" style="stop-color:#999999"/>
		</linearGradient>
		<polygon fill="url(#SVGID_62_)" points="889.183,160.717 876.541,160.698 776.541,60.698 789.183,60.717 		"/>
		
			<linearGradient id="SVGID_63_" gradientUnits="userSpaceOnUse" x1="1113.5708" y1="-164.5562" x2="1146.4358" y2="-145.5816" gradientTransform="matrix(1 0 0 -1 -274 -81.7998)">
			<stop  offset="0" style="stop-color:#999999"/>
			<stop  offset="0.4" style="stop-color:#C1C3C5"/>
			<stop  offset="0.7" style="stop-color:#CCCCCC"/>
		</linearGradient>
		<polygon fill="url(#SVGID_63_)" points="893.722,103.344 918.125,143.206 918.283,143.192 818.283,43.192 818.125,43.206 
			793.722,3.345 		"/>
		
			<linearGradient id="SVGID_64_" gradientUnits="userSpaceOnUse" x1="1063.1831" y1="-172.0884" x2="1163.1831" y2="-172.0884" gradientTransform="matrix(1 0 0 -1 -274 -81.7998)">
			<stop  offset="0" style="stop-color:#999999"/>
			<stop  offset="0.4" style="stop-color:#C1C3C5"/>
			<stop  offset="0.7" style="stop-color:#CCCCCC"/>
		</linearGradient>
		<polygon fill="url(#SVGID_64_)" points="889.183,160.717 889.183,119.86 789.183,19.86 789.183,60.717 		"/>
		
			<linearGradient id="SVGID_65_" gradientUnits="userSpaceOnUse" x1="1146.6577" y1="-242.5049" x2="1146.6577" y2="-142.498" gradientTransform="matrix(1 0 0 -1 -274 -81.7998)">
			<stop  offset="0.3" style="stop-color:#CCCCCC"/>
			<stop  offset="0.6" style="stop-color:#C1C3C5"/>
			<stop  offset="1" style="stop-color:#999999"/>
		</linearGradient>
		<polygon fill="url(#SVGID_65_)" points="930.925,160.706 914.388,160.698 814.388,60.698 830.925,60.705 		"/>
		
			<linearGradient id="SVGID_66_" gradientUnits="userSpaceOnUse" x1="1104.9253" y1="-163.8218" x2="1204.9253" y2="-163.8218" gradientTransform="matrix(1 0 0 -1 -274 -81.7998)">
			<stop  offset="0" style="stop-color:#999999"/>
			<stop  offset="0.4" style="stop-color:#C1C3C5"/>
			<stop  offset="0.7" style="stop-color:#CCCCCC"/>
		</linearGradient>
		<polygon fill="url(#SVGID_66_)" points="930.925,160.706 930.925,103.338 830.925,3.338 830.925,60.705 		"/>
	</g>
</g>
<g id="GRAPHIC_DESIGN_TEXT_2_">
	<path fill="#323031" d="M55.898,56.643c-7.457,3.879-15.652,5.502-24.072,5.502C13.918,62.152,0.879,50.394,0.879,31.997
		c0-18.384,13.039-30.137,30.935-30.143c9.08,0,17.13,2.032,22.858,7.376l-8.895,9.727c-3.405-3.556-7.549-5.431-13.95-5.431
		c-10.77,0-17.83,7.78-17.83,18.463c0,10.709,7.06,18.49,17.83,18.49c5.53,0.006,9.568-1.538,11.917-2.838v-9.317L33.45,38.331
		v-11.68l22.462,0.014L55.898,56.643z"/>
	<path fill="#323031" d="M75.153,3.318l22.198,0.007c11.759,0,21.644,4.045,21.63,17.407c0,8.023-4.289,14.266-12.392,15.724
		l14.596,24.23h-15.177L94.025,37.75h-6.229v22.944H75.14L75.153,3.318z M87.796,27.066l7.443-0.006
		c4.62-0.007,10.637-0.159,10.624-6.407c-0.013-5.761-5.187-6.639-9.806-6.632l-8.262-0.013L87.796,27.066L87.796,27.066z"/>
	<path fill="#323031" d="M153.681,3.325h10.452l24.969,57.362h-14.28l-4.935-12.155l-22.291-0.006l-4.777,12.168l-13.95-0.007
		L153.681,3.325z M158.538,20.006l-6.969,17.836l14.016-0.007L158.538,20.006z"/>
	<path fill="#323031" d="M200.986,3.318h21.3c11.931,0.007,21.829,3.814,21.802,17.407c0.026,13.468-9.146,17.599-21.221,17.599
		h-9.238v22.362h-12.643V3.318z M213.629,27.627l8.42-0.006c4.474,0.013,8.921-1.531,8.921-6.896c0-5.9-5.992-6.711-10.862-6.711
		h-6.479V27.627z"/>
	<path fill="#323031" d="M260.189,3.318l12.63-0.006v21.393h24.561V3.325l12.643-0.007V60.7l-12.643-0.007v-24.79l-24.547-0.007
		v24.792H260.19L260.189,3.318L260.189,3.318z"/>
	<path fill="#323031" d="M329.66,3.318l12.656,0.007v57.369l-12.656-0.007V3.318z"/>
	<path fill="#323031" d="M399.46,18.225c-2.507-2.996-6.163-4.698-10.848-4.698c-9.568-0.007-16.615,7.78-16.615,18.47
		c0,10.709,7.047,18.483,16.206,18.489c5.094-0.006,9.225-2.276,11.825-6.163l10.531,7.852c-4.777,6.811-12.881,9.971-20.746,9.978
		c-17.896,0-30.948-11.751-30.935-30.155c0-18.384,13.039-30.143,30.935-30.149c6.415,0.013,14.504,2.191,19.375,8.439
		L399.46,18.225z"/>
	<path fill="#323031" d="M489.789,3.318h18.979c18.479,0,33.973,7.859,33.973,28.856c0,18.549-15.15,28.52-32.254,28.513h-20.695
		V3.318H489.789z M502.433,49.021l6.572,0.006c11.771,0,20.586-4.46,20.586-17.506c0-11.258-8.973-16.536-19.689-16.536
		l-7.469-0.007V49.021z"/>
	<path fill="#323031" d="M559.947,3.318h38.959l0.025,11.667h-26.367v10.716l24.889-0.02v11.68l-24.889-0.02l0.025,11.686
		l27.793-0.013l-0.025,11.673l-40.41,0.007V3.318L559.947,3.318z"/>
	<path fill="#323031" d="M646.998,17.334c-2.033-2.593-6.072-3.801-9.16-3.808c-3.563,0-8.498,1.61-8.498,5.92
		c0,10.451,26.42,3.727,26.42,23.814c0,12.801-10.295,18.884-22.145,18.891c-7.363-0.007-13.83-2.21-19.268-7.232l9-9.871
		c2.586,3.397,6.783,5.431,11.006,5.437c4.146,0,8.764-1.954,8.764-6.004c0-10.531-26.896-4.864-26.896-23.974
		c0-12.246,10.609-18.653,21.881-18.653c6.469,0,12.725,1.708,17.578,5.997L646.998,17.334z"/>
	<path fill="#323031" d="M673.126,3.325l12.643-0.007v57.375h-12.643V3.325z"/>
	<path fill="#323031" d="M757.351,56.643c-7.469,3.879-15.652,5.502-24.07,5.502c-17.896,0-30.961-11.739-30.961-30.143
		c0-18.396,13.039-30.148,30.961-30.155c9.078,0.013,17.104,2.032,22.857,7.377l-8.922,9.726c-3.404-3.549-7.521-5.417-13.936-5.424
		c-10.771,0-17.816,7.773-17.816,18.47c-0.027,10.702,7.047,18.483,17.816,18.483c5.516,0.006,9.555-1.538,11.9-2.831v-9.324
		l-10.293,0.013V26.645l22.461,0.02v29.978H757.351z"/>
	<path fill="#323031" d="M776.593,3.318h17.184l24.389,39.869l0.184-0.007V3.325l12.617-0.007v57.369h-16.52l-25.049-40.839
		l-0.158,0.007v40.839l-12.646-0.007V3.318L776.593,3.318z"/>
</g>
</svg>
