<?xml version="1.0" encoding="utf-8"?>
<!-- Generator: Adobe Illustrator 16.0.0, SVG Export Plug-In . SVG Version: 6.00 Build 0)  -->
<!DOCTYPE svg PUBLIC "-//W3C//DTD SVG 1.1//EN" "http://www.w3.org/Graphics/SVG/1.1/DTD/svg11.dtd">
<svg version="1.1" id="Layer_1" xmlns="http://www.w3.org/2000/svg" xmlns:xlink="http://www.w3.org/1999/xlink" x="0px" y="0px"
	 width="746px" height="161.7px" viewBox="0 0 746 161.7" enable-background="new 0 0 746 161.7" xml:space="preserve">
<g id="ILLSUTRATION_SHADOW_2_">
	<g id="I_2_">
		<linearGradient id="SVGID_1_" gradientUnits="userSpaceOnUse" x1="58.0112" y1="159.772" x2="58.0112" y2="59.7661">
			<stop  offset="0.3" style="stop-color:#CCCCCC"/>
			<stop  offset="0.6" style="stop-color:#C1C3C5"/>
			<stop  offset="1" style="stop-color:#999999"/>
		</linearGradient>
		<polygon fill="url(#SVGID_1_)" points="114.339,159.772 101.683,159.766 1.683,59.766 14.339,59.772 		"/>
		<linearGradient id="SVGID_2_" gradientUnits="userSpaceOnUse" x1="114.3389" y1="81.0894" x2="14.3389" y2="81.0894">
			<stop  offset="0.3" style="stop-color:#CCCCCC"/>
			<stop  offset="0.6" style="stop-color:#C1C3C5"/>
			<stop  offset="1" style="stop-color:#999999"/>
		</linearGradient>
		<polygon fill="url(#SVGID_2_)" points="114.339,159.772 114.339,102.407 14.339,2.406 14.339,59.772 		"/>
	</g>
	<g id="L_4_">
		<linearGradient id="SVGID_3_" gradientUnits="userSpaceOnUse" x1="147.0908" y1="75.2476" x2="47.0908" y2="75.2476">
			<stop  offset="0.3" style="stop-color:#CCCCCC"/>
			<stop  offset="0.6" style="stop-color:#C1C3C5"/>
			<stop  offset="1" style="stop-color:#999999"/>
		</linearGradient>
		<polygon fill="url(#SVGID_3_)" points="147.091,102.391 147.091,148.104 47.091,48.104 47.091,2.391 		"/>
		<linearGradient id="SVGID_4_" gradientUnits="userSpaceOnUse" x1="102.4819" y1="159.7837" x2="102.4819" y2="59.771">
			<stop  offset="0.3" style="stop-color:#CCCCCC"/>
			<stop  offset="0.6" style="stop-color:#C1C3C5"/>
			<stop  offset="1" style="stop-color:#999999"/>
		</linearGradient>
		<polygon fill="url(#SVGID_4_)" points="170.515,159.784 134.448,159.77 34.448,59.771 70.515,59.784 		"/>
		<linearGradient id="SVGID_5_" gradientUnits="userSpaceOnUse" x1="170.5151" y1="103.9507" x2="70.5151" y2="103.9507">
			<stop  offset="0.3" style="stop-color:#CCCCCC"/>
			<stop  offset="0.6" style="stop-color:#C1C3C5"/>
			<stop  offset="1" style="stop-color:#999999"/>
		</linearGradient>
		<polygon fill="url(#SVGID_5_)" points="170.515,148.118 170.515,159.784 70.515,59.784 70.515,48.117 		"/>
	</g>
	<g id="L_1_">
		<linearGradient id="SVGID_6_" gradientUnits="userSpaceOnUse" x1="198.7471" y1="75.2476" x2="98.7471" y2="75.2476">
			<stop  offset="0.3" style="stop-color:#CCCCCC"/>
			<stop  offset="0.6" style="stop-color:#C1C3C5"/>
			<stop  offset="1" style="stop-color:#999999"/>
		</linearGradient>
		<polygon fill="url(#SVGID_6_)" points="198.747,102.391 198.747,148.104 98.747,48.104 98.747,2.391 		"/>
		<linearGradient id="SVGID_7_" gradientUnits="userSpaceOnUse" x1="154.1382" y1="159.7837" x2="154.1382" y2="59.771">
			<stop  offset="0.3" style="stop-color:#CCCCCC"/>
			<stop  offset="0.6" style="stop-color:#C1C3C5"/>
			<stop  offset="1" style="stop-color:#999999"/>
		</linearGradient>
		<polygon fill="url(#SVGID_7_)" points="222.171,159.784 186.104,159.77 86.104,59.771 122.171,59.784 		"/>
		<linearGradient id="SVGID_8_" gradientUnits="userSpaceOnUse" x1="222.1714" y1="103.9507" x2="122.1714" y2="103.9507">
			<stop  offset="0.3" style="stop-color:#CCCCCC"/>
			<stop  offset="0.6" style="stop-color:#C1C3C5"/>
			<stop  offset="1" style="stop-color:#999999"/>
		</linearGradient>
		<polygon fill="url(#SVGID_8_)" points="222.171,148.118 222.171,159.784 122.171,59.784 122.171,48.117 		"/>
	</g>
	<g id="U_2_">
		<linearGradient id="SVGID_9_" gradientUnits="userSpaceOnUse" x1="246.3789" y1="74.3062" x2="142.9072" y2="74.3062">
			<stop  offset="0.3" style="stop-color:#CCCCCC"/>
			<stop  offset="0.6" style="stop-color:#C1C3C5"/>
			<stop  offset="1" style="stop-color:#999999"/>
		</linearGradient>
		<path fill="url(#SVGID_9_)" d="M246.379,146.208c-2.177-2.229-3.472-5.408-3.472-9.043v-34.76l-100-100v34.76
			c0,3.635,1.295,6.814,3.472,9.044L246.379,146.208z"/>
		<radialGradient id="SVGID_10_" cx="163.0908" cy="44.9438" r="156.6286" gradientUnits="userSpaceOnUse">
			<stop  offset="0" style="stop-color:#999999"/>
			<stop  offset="0.1057" style="stop-color:#A6A8AB"/>
			<stop  offset="0.35" style="stop-color:#C1C3C5"/>
			<stop  offset="0.7" style="stop-color:#CCCCCC"/>
		</radialGradient>
		<path fill="url(#SVGID_10_)" d="M236.525,154.645c4.062,4.127,10.08,6.59,17.982,6.59c15.863,0,24.137-10.055,24.15-23.582
			l-100-100c-0.014,13.527-8.287,23.583-24.15,23.583c-7.902,0-13.92-2.463-17.982-6.591L236.525,154.645z"/>
		<linearGradient id="SVGID_11_" gradientUnits="userSpaceOnUse" x1="278.6572" y1="70.0151" x2="178.6436" y2="70.0151">
			<stop  offset="0.3" style="stop-color:#CCCCCC"/>
			<stop  offset="0.6" style="stop-color:#C1C3C5"/>
			<stop  offset="1" style="stop-color:#999999"/>
		</linearGradient>
		<polygon fill="url(#SVGID_11_)" points="278.644,102.377 278.657,137.653 178.657,37.652 178.644,2.377 		"/>
	</g>
	<g id="S_1_">
		<linearGradient id="SVGID_12_" gradientUnits="userSpaceOnUse" x1="260.6021" y1="139.9263" x2="260.6021" y2="29.4634">
			<stop  offset="0.3" style="stop-color:#CCCCCC"/>
			<stop  offset="0.6" style="stop-color:#C1C3C5"/>
			<stop  offset="1" style="stop-color:#999999"/>
		</linearGradient>
		<path fill="url(#SVGID_12_)" d="M321.433,139.926c-4.098-4.199-15.647-4.389-21.661-10.463l-100-100
			c6.014,6.074,17.563,6.264,21.661,10.464L321.433,139.926z"/>
		<radialGradient id="SVGID_13_" cx="320.7393" cy="118.8169" r="152.1041" gradientUnits="userSpaceOnUse">
			<stop  offset="0.3" style="stop-color:#CCCCCC"/>
			<stop  offset="0.6" style="stop-color:#C1C3C5"/>
			<stop  offset="1" style="stop-color:#999999"/>
		</radialGradient>
		<path fill="url(#SVGID_13_)" d="M310.577,122.042c-0.904-0.914-1.432-2.049-1.436-3.523c0.014-4.291,4.962-5.912,8.525-5.926
			c2.844,0,6.535,1.039,8.67,3.262l-100-100c-2.136-2.224-5.826-3.263-8.67-3.263c-3.563,0.014-8.511,1.635-8.525,5.926
			c0.004,1.476,0.531,2.609,1.436,3.524L310.577,122.042z"/>
		<linearGradient id="SVGID_14_" gradientUnits="userSpaceOnUse" x1="253.8042" y1="161.2349" x2="253.8042" y2="54.0298">
			<stop  offset="0.3" style="stop-color:#CCCCCC"/>
			<stop  offset="0.6" style="stop-color:#C1C3C5"/>
			<stop  offset="1" style="stop-color:#999999"/>
		</linearGradient>
		<path fill="url(#SVGID_14_)" d="M294.164,154.03c5.424,5.016,11.917,7.205,19.281,7.205l-100-100
			c-7.364,0-13.856-2.19-19.281-7.206L294.164,154.03z"/>
		<radialGradient id="SVGID_15_" cx="223.0098" cy="44.4575" r="155.1926" gradientUnits="userSpaceOnUse">
			<stop  offset="0" style="stop-color:#999999"/>
			<stop  offset="0.0837" style="stop-color:#A6A8AB"/>
			<stop  offset="0.3527" style="stop-color:#C1C3C5"/>
			<stop  offset="0.7" style="stop-color:#CCCCCC"/>
		</radialGradient>
		<path fill="url(#SVGID_15_)" d="M313.444,161.235c11.824,0,22.131-6.07,22.131-18.871c-0.003-4.988-1.63-8.326-4.074-10.684
			l-100-100c2.444,2.357,4.071,5.694,4.074,10.683c0,12.802-10.307,18.872-22.131,18.872L313.444,161.235z"/>
		<linearGradient id="SVGID_16_" gradientUnits="userSpaceOnUse" x1="331.3701" y1="111.8774" x2="230.9665" y2="11.4738">
			<stop  offset="0.3" style="stop-color:#CCCCCC"/>
			<stop  offset="0.6" style="stop-color:#C1C3C5"/>
			<stop  offset="1" style="stop-color:#999999"/>
		</linearGradient>
		<polygon fill="url(#SVGID_16_)" points="326.826,116.42 335.509,106.93 235.509,6.931 226.826,16.42 		"/>
	</g>
	<g id="T_2_">
		<linearGradient id="SVGID_17_" gradientUnits="userSpaceOnUse" x1="320.5532" y1="159.7681" x2="320.5532" y2="59.7485">
			<stop  offset="0.3" style="stop-color:#CCCCCC"/>
			<stop  offset="0.6" style="stop-color:#C1C3C5"/>
			<stop  offset="1" style="stop-color:#999999"/>
		</linearGradient>
		<polygon fill="url(#SVGID_17_)" points="376.868,159.768 364.238,159.749 264.238,59.748 276.868,59.768 		"/>
		<linearGradient id="SVGID_18_" gradientUnits="userSpaceOnUse" x1="335.0503" y1="113.5786" x2="335.0503" y2="13.5796">
			<stop  offset="0.3" style="stop-color:#CCCCCC"/>
			<stop  offset="0.6" style="stop-color:#C1C3C5"/>
			<stop  offset="1" style="stop-color:#999999"/>
		</linearGradient>
		<polygon fill="url(#SVGID_18_)" points="376.868,113.579 393.232,113.579 293.232,13.579 276.868,13.579 		"/>
		<linearGradient id="SVGID_19_" gradientUnits="userSpaceOnUse" x1="393.2461" y1="57.9805" x2="293.2324" y2="57.9805">
			<stop  offset="0.3" style="stop-color:#CCCCCC"/>
			<stop  offset="0.6" style="stop-color:#C1C3C5"/>
			<stop  offset="1" style="stop-color:#999999"/>
		</linearGradient>
		<polygon fill="url(#SVGID_19_)" points="393.246,102.381 393.232,113.579 293.232,13.579 293.246,2.382 		"/>
		<linearGradient id="SVGID_20_" gradientUnits="userSpaceOnUse" x1="306.0435" y1="113.5786" x2="306.0435" y2="13.5796">
			<stop  offset="0.3" style="stop-color:#CCCCCC"/>
			<stop  offset="0.6" style="stop-color:#C1C3C5"/>
			<stop  offset="1" style="stop-color:#999999"/>
		</linearGradient>
		<polygon fill="url(#SVGID_20_)" points="364.238,113.579 347.849,113.579 247.849,13.579 264.238,13.579 		"/>
		<linearGradient id="SVGID_21_" gradientUnits="userSpaceOnUse" x1="376.8682" y1="86.6733" x2="276.8687" y2="86.6733">
			<stop  offset="0.3" style="stop-color:#CCCCCC"/>
			<stop  offset="0.6" style="stop-color:#C1C3C5"/>
			<stop  offset="1" style="stop-color:#999999"/>
		</linearGradient>
		<polygon fill="url(#SVGID_21_)" points="376.868,159.768 376.868,113.579 276.868,13.579 276.868,59.768 		"/>
	</g>
	<g id="R_1_">
		<linearGradient id="SVGID_22_" gradientUnits="userSpaceOnUse" x1="420.4043" y1="98.2925" x2="320.4048" y2="98.2925">
			<stop  offset="0.3" style="stop-color:#CCCCCC"/>
			<stop  offset="0.6" style="stop-color:#C1C3C5"/>
			<stop  offset="1" style="stop-color:#999999"/>
		</linearGradient>
		<polygon fill="url(#SVGID_22_)" points="420.404,159.756 420.404,136.829 320.404,36.828 320.404,59.757 		"/>
		<linearGradient id="SVGID_23_" gradientUnits="userSpaceOnUse" x1="373.5254" y1="136.8286" x2="373.5254" y2="36.8286">
			<stop  offset="0.3" style="stop-color:#CCCCCC"/>
			<stop  offset="0.6" style="stop-color:#C1C3C5"/>
			<stop  offset="1" style="stop-color:#999999"/>
		</linearGradient>
		<polygon fill="url(#SVGID_23_)" points="420.404,136.829 426.646,136.829 326.647,36.828 320.404,36.828 		"/>
		<linearGradient id="SVGID_24_" gradientUnits="userSpaceOnUse" x1="396.2168" y1="159.7563" x2="396.2168" y2="59.7515">
			<stop  offset="0.3" style="stop-color:#CCCCCC"/>
			<stop  offset="0.6" style="stop-color:#C1C3C5"/>
			<stop  offset="1" style="stop-color:#999999"/>
		</linearGradient>
		<polygon fill="url(#SVGID_24_)" points="453.793,159.756 438.643,159.75 338.642,59.751 353.792,59.757 		"/>
		<linearGradient id="SVGID_25_" gradientUnits="userSpaceOnUse" x1="364.0835" y1="159.7563" x2="364.0835" y2="59.7573">
			<stop  offset="0.3" style="stop-color:#CCCCCC"/>
			<stop  offset="0.6" style="stop-color:#C1C3C5"/>
			<stop  offset="1" style="stop-color:#999999"/>
		</linearGradient>
		<polygon fill="url(#SVGID_25_)" points="420.404,159.756 407.762,159.756 307.762,59.757 320.404,59.757 		"/>
		<linearGradient id="SVGID_26_" gradientUnits="userSpaceOnUse" x1="420.4043" y1="69.6035" x2="320.4048" y2="69.6035">
			<stop  offset="0.3" style="stop-color:#CCCCCC"/>
			<stop  offset="0.6" style="stop-color:#C1C3C5"/>
			<stop  offset="1" style="stop-color:#999999"/>
		</linearGradient>
		<polygon fill="url(#SVGID_26_)" points="420.404,126.125 420.404,113.081 320.404,13.081 320.404,26.126 		"/>
		<linearGradient id="SVGID_27_" gradientUnits="userSpaceOnUse" x1="378.627" y1="115.3188" x2="378.627" y2="13.0815">
			<stop  offset="0.3" style="stop-color:#CCCCCC"/>
			<stop  offset="0.6" style="stop-color:#C1C3C5"/>
			<stop  offset="1" style="stop-color:#999999"/>
		</linearGradient>
		<path fill="url(#SVGID_27_)" d="M420.404,113.081h8.262c3.023-0.004,6.283,0.377,8.184,2.238l-100-100
			c-1.899-1.862-5.16-2.243-8.183-2.238h-8.262L420.404,113.081z"/>
		<linearGradient id="SVGID_28_" gradientUnits="userSpaceOnUse" x1="380.417" y1="106.9243" x2="412.5722" y2="88.3595">
			<stop  offset="0" style="stop-color:#999999"/>
			<stop  offset="0.4" style="stop-color:#C1C3C5"/>
			<stop  offset="0.7" style="stop-color:#CCCCCC"/>
		</linearGradient>
		<polygon fill="url(#SVGID_28_)" points="453.793,159.756 439.196,135.528 339.196,35.528 353.792,59.757 		"/>
		<radialGradient id="SVGID_29_" cx="338.3984" cy="19.5425" r="157.7494" gradientUnits="userSpaceOnUse">
			<stop  offset="0" style="stop-color:#999999"/>
			<stop  offset="0.1031" style="stop-color:#A6A8AB"/>
			<stop  offset="0.4377" style="stop-color:#C1C3C5"/>
			<stop  offset="0.7" style="stop-color:#CCCCCC"/>
		</radialGradient>
		<path fill="url(#SVGID_29_)" d="M439.196,135.528c8.116-1.457,12.405-7.693,12.405-15.723c0-5.576-1.721-9.531-4.58-12.248
			l-100-100c2.859,2.717,4.58,6.672,4.58,12.247c0,8.029-4.289,14.266-12.405,15.724L439.196,135.528z"/>
	</g>
	<g id="A_1_">
		<linearGradient id="SVGID_30_" gradientUnits="userSpaceOnUse" x1="489.3896" y1="131.9536" x2="368.2117" y2="75.4474">
			<stop  offset="0.3" style="stop-color:#CCCCCC"/>
			<stop  offset="0.6" style="stop-color:#C1C3C5"/>
			<stop  offset="1" style="stop-color:#999999"/>
		</linearGradient>
		<polygon fill="url(#SVGID_30_)" points="476.412,159.784 481.19,147.616 381.19,47.616 376.412,59.783 		"/>
		<linearGradient id="SVGID_31_" gradientUnits="userSpaceOnUse" x1="499.4219" y1="106.355" x2="377.8722" y2="49.6754">
			<stop  offset="0.3" style="stop-color:#CCCCCC"/>
			<stop  offset="0.6" style="stop-color:#C1C3C5"/>
			<stop  offset="1" style="stop-color:#999999"/>
		</linearGradient>
		<polygon fill="url(#SVGID_31_)" points="492.131,119.096 485.162,136.934 385.162,36.934 392.131,19.097 		"/>
		<linearGradient id="SVGID_32_" gradientUnits="userSpaceOnUse" x1="442.335" y1="147.6235" x2="442.335" y2="47.6167">
			<stop  offset="0.3" style="stop-color:#CCCCCC"/>
			<stop  offset="0.6" style="stop-color:#C1C3C5"/>
			<stop  offset="1" style="stop-color:#999999"/>
		</linearGradient>
		<polygon fill="url(#SVGID_32_)" points="503.479,147.624 481.19,147.616 381.19,47.616 403.479,47.623 		"/>
		<linearGradient id="SVGID_33_" gradientUnits="userSpaceOnUse" x1="419.4375" y1="159.7837" x2="419.4375" y2="59.7769">
			<stop  offset="0.3" style="stop-color:#CCCCCC"/>
			<stop  offset="0.6" style="stop-color:#C1C3C5"/>
			<stop  offset="1" style="stop-color:#999999"/>
		</linearGradient>
		<polygon fill="url(#SVGID_33_)" points="476.412,159.784 462.464,159.776 362.464,59.776 376.412,59.783 		"/>
		<linearGradient id="SVGID_34_" gradientUnits="userSpaceOnUse" x1="437.5615" y1="91.6587" x2="482.8592" y2="70.536">
			<stop  offset="0" style="stop-color:#999999"/>
			<stop  offset="0.4" style="stop-color:#C1C3C5"/>
			<stop  offset="0.7" style="stop-color:#CCCCCC"/>
		</linearGradient>
		<polygon fill="url(#SVGID_34_)" points="522.694,159.776 497.726,102.417 397.726,2.417 422.694,59.776 		"/>
		<linearGradient id="SVGID_35_" gradientUnits="userSpaceOnUse" x1="465.5547" y1="159.7759" x2="465.5547" y2="59.7769">
			<stop  offset="0.3" style="stop-color:#CCCCCC"/>
			<stop  offset="0.6" style="stop-color:#C1C3C5"/>
			<stop  offset="1" style="stop-color:#999999"/>
		</linearGradient>
		<polygon fill="url(#SVGID_35_)" points="522.694,159.776 508.415,159.776 408.415,59.776 422.694,59.776 		"/>
	</g>
	<g id="T_1_">
		<linearGradient id="SVGID_36_" gradientUnits="userSpaceOnUse" x1="496.5684" y1="159.7681" x2="496.5684" y2="59.7485">
			<stop  offset="0.3" style="stop-color:#CCCCCC"/>
			<stop  offset="0.6" style="stop-color:#C1C3C5"/>
			<stop  offset="1" style="stop-color:#999999"/>
		</linearGradient>
		<polygon fill="url(#SVGID_36_)" points="552.884,159.768 540.254,159.749 440.254,59.748 452.884,59.768 		"/>
		<linearGradient id="SVGID_37_" gradientUnits="userSpaceOnUse" x1="511.0664" y1="113.5786" x2="511.0664" y2="13.5796">
			<stop  offset="0.3" style="stop-color:#CCCCCC"/>
			<stop  offset="0.6" style="stop-color:#C1C3C5"/>
			<stop  offset="1" style="stop-color:#999999"/>
		</linearGradient>
		<polygon fill="url(#SVGID_37_)" points="552.884,113.579 569.248,113.579 469.248,13.579 452.884,13.579 		"/>
		<linearGradient id="SVGID_38_" gradientUnits="userSpaceOnUse" x1="569.2617" y1="57.98" x2="469.248" y2="57.98">
			<stop  offset="0.3" style="stop-color:#CCCCCC"/>
			<stop  offset="0.6" style="stop-color:#C1C3C5"/>
			<stop  offset="1" style="stop-color:#999999"/>
		</linearGradient>
		<polygon fill="url(#SVGID_38_)" points="569.262,102.381 569.248,113.579 469.248,13.579 469.262,2.382 		"/>
		<linearGradient id="SVGID_39_" gradientUnits="userSpaceOnUse" x1="482.0596" y1="113.5786" x2="482.0596" y2="13.5796">
			<stop  offset="0.3" style="stop-color:#CCCCCC"/>
			<stop  offset="0.6" style="stop-color:#C1C3C5"/>
			<stop  offset="1" style="stop-color:#999999"/>
		</linearGradient>
		<polygon fill="url(#SVGID_39_)" points="540.254,113.579 523.865,113.579 423.865,13.579 440.254,13.579 		"/>
		<linearGradient id="SVGID_40_" gradientUnits="userSpaceOnUse" x1="552.8838" y1="86.6733" x2="452.8838" y2="86.6733">
			<stop  offset="0.3" style="stop-color:#CCCCCC"/>
			<stop  offset="0.6" style="stop-color:#C1C3C5"/>
			<stop  offset="1" style="stop-color:#999999"/>
		</linearGradient>
		<polygon fill="url(#SVGID_40_)" points="552.884,159.768 552.884,113.579 452.884,13.579 452.884,59.768 		"/>
	</g>
	<g id="I_1_">
		<linearGradient id="SVGID_41_" gradientUnits="userSpaceOnUse" x1="539.9492" y1="159.7876" x2="539.9492" y2="59.7817">
			<stop  offset="0.3" style="stop-color:#CCCCCC"/>
			<stop  offset="0.6" style="stop-color:#C1C3C5"/>
			<stop  offset="1" style="stop-color:#999999"/>
		</linearGradient>
		<polygon fill="url(#SVGID_41_)" points="596.276,159.788 583.621,159.782 483.621,59.781 496.276,59.788 		"/>
		<linearGradient id="SVGID_42_" gradientUnits="userSpaceOnUse" x1="596.2764" y1="81.1045" x2="496.2764" y2="81.1045">
			<stop  offset="0.3" style="stop-color:#CCCCCC"/>
			<stop  offset="0.6" style="stop-color:#C1C3C5"/>
			<stop  offset="1" style="stop-color:#999999"/>
		</linearGradient>
		<polygon fill="url(#SVGID_42_)" points="596.276,159.788 596.276,102.422 496.276,2.422 496.276,59.788 		"/>
	</g>
	<g id="O_1_">
		<radialGradient id="SVGID_43_" cx="641.5576" cy="127.5806" r="157.4269" gradientUnits="userSpaceOnUse">
			<stop  offset="0.3" style="stop-color:#CCCCCC"/>
			<stop  offset="0.6" style="stop-color:#C1C3C5"/>
			<stop  offset="1" style="stop-color:#999999"/>
		</radialGradient>
		<path fill="url(#SVGID_43_)" d="M656.183,117.301c-3.078-2.963-7.334-4.701-12.408-4.695
			c-10.797-0.014-17.842,7.799-17.842,18.475c0,5.475,1.843,10.182,5.089,13.475l-100-100c-3.246-3.293-5.089-8.001-5.089-13.476
			c0-10.676,7.045-18.488,17.842-18.475c5.074-0.006,9.33,1.733,12.408,4.695L656.183,117.301z"/>
		
			<radialGradient id="SVGID_44_" cx="545.0088" cy="31.312" r="173.0544" gradientTransform="matrix(0.7071 0.7071 -0.5713 0.5713 177.5193 -371.9573)" gradientUnits="userSpaceOnUse">
			<stop  offset="0" style="stop-color:#999999"/>
			<stop  offset="0.1744" style="stop-color:#A6A8AB"/>
			<stop  offset="0.35" style="stop-color:#C1C3C5"/>
			<stop  offset="0.6841" style="stop-color:#CCCCCC"/>
		</radialGradient>
		<path fill="url(#SVGID_44_)" d="M621.311,152.815c5.521,5.391,13.367,8.42,22.464,8.42c17.894,0,30.933-11.744,30.933-30.141
			c0-8.963-3.09-16.348-8.326-21.568c-0.046-0.045-0.092-0.092-0.138-0.137l-100-100c0.046,0.046,0.092,0.092,0.138,0.137
			c5.236,5.221,8.326,12.606,8.326,21.568c0,18.396-13.039,30.142-30.933,30.142c-9.097,0-16.942-3.03-22.464-8.421L621.311,152.815
			z"/>
	</g>
	<g id="N_1_">
		<linearGradient id="SVGID_45_" gradientUnits="userSpaceOnUse" x1="647.7334" y1="159.7837" x2="647.7334" y2="59.7642">
			<stop  offset="0.3" style="stop-color:#CCCCCC"/>
			<stop  offset="0.6" style="stop-color:#C1C3C5"/>
			<stop  offset="1" style="stop-color:#999999"/>
		</linearGradient>
		<polygon fill="url(#SVGID_45_)" points="704.055,159.784 691.412,159.764 591.412,59.764 604.055,59.783 		"/>
		<linearGradient id="SVGID_46_" gradientUnits="userSpaceOnUse" x1="704.0547" y1="89.355" x2="604.0547" y2="89.355">
			<stop  offset="0.3" style="stop-color:#CCCCCC"/>
			<stop  offset="0.6" style="stop-color:#C1C3C5"/>
			<stop  offset="1" style="stop-color:#999999"/>
		</linearGradient>
		<polygon fill="url(#SVGID_46_)" points="704.055,159.784 704.055,118.926 604.055,18.927 604.055,59.783 		"/>
		<linearGradient id="SVGID_47_" gradientUnits="userSpaceOnUse" x1="687.5283" y1="159.772" x2="687.5283" y2="59.7642">
			<stop  offset="0.3" style="stop-color:#CCCCCC"/>
			<stop  offset="0.6" style="stop-color:#C1C3C5"/>
			<stop  offset="1" style="stop-color:#999999"/>
		</linearGradient>
		<polygon fill="url(#SVGID_47_)" points="745.797,159.772 729.26,159.764 629.26,59.764 645.797,59.771 		"/>
		<linearGradient id="SVGID_48_" gradientUnits="userSpaceOnUse" x1="654.4414" y1="81.8218" x2="687.3062" y2="62.8473">
			<stop  offset="0" style="stop-color:#999999"/>
			<stop  offset="0.4" style="stop-color:#C1C3C5"/>
			<stop  offset="0.7" style="stop-color:#CCCCCC"/>
		</linearGradient>
		<polygon fill="url(#SVGID_48_)" points="708.594,102.411 732.995,142.272 733.154,142.258 633.154,42.258 632.995,42.271 
			608.594,2.411 		"/>
		<linearGradient id="SVGID_49_" gradientUnits="userSpaceOnUse" x1="745.7969" y1="81.0884" x2="645.7969" y2="81.0884">
			<stop  offset="0.3" style="stop-color:#CCCCCC"/>
			<stop  offset="0.6" style="stop-color:#C1C3C5"/>
			<stop  offset="1" style="stop-color:#999999"/>
		</linearGradient>
		<polygon fill="url(#SVGID_49_)" points="745.797,159.772 745.797,102.405 645.797,2.404 645.797,59.771 		"/>
	</g>
</g>
<g id="ILLUSTRATION_TEXT_2_">
	<path fill="#323031" d="M1.688,2.4l12.656,0.014L14.331,59.78H1.688V2.4z"/>
	<path fill="#323031" d="M34.455,2.414L47.084,2.4v45.715l23.423,0.014v11.665L34.441,59.78L34.455,2.414z"/>
	<path fill="#323031" d="M86.092,2.4l12.642,0.014v45.715l23.412-0.014l0.013,11.679H86.105L86.092,2.4z"/>
	<path fill="#323031" d="M178.647,37.662c-0.013,13.525-8.287,23.581-24.15,23.581c-15.968,0-24.242-10.056-24.229-23.581V2.4
		l12.629,0.014v34.76c0,7.047,4.869,12.392,11.599,12.392c6.639,0.014,11.507-5.345,11.494-12.392L166.004,2.4l12.63-0.012
		L178.647,37.662z"/>
	<path fill="#323031" d="M226.814,16.43c-2.02-2.613-6.084-3.827-9.159-3.827c-3.563,0.013-8.511,1.636-8.525,5.925
		c0.027,10.466,26.419,3.735,26.433,23.847c0,12.801-10.307,18.869-22.131,18.869c-7.364,0-13.856-2.189-19.28-7.203l8.987-9.898
		c2.613,3.406,6.809,5.424,11.032,5.424c4.144,0,8.736-1.94,8.736-5.991c0-10.53-26.894-4.869-26.894-24.004
		c0-12.22,10.61-18.633,21.879-18.633c6.493,0.027,12.735,1.715,17.604,6.003L226.814,16.43z"/>
	<path fill="#323031" d="M264.187,13.58l-16.351,0.025L247.823,2.4h45.396v11.193H276.83V59.78L264.2,59.794L264.187,13.58z"/>
	<path fill="#323031" d="M307.735,2.414h22.209c11.758,0,21.63,4.04,21.63,17.42c0,8.025-4.303,14.238-12.391,15.704l14.581,24.242
		l-15.15,0.014l-11.982-22.937l-6.255-0.014V59.78h-12.643V2.414z M320.378,26.143l7.469,0.012
		c4.605-0.012,10.611-0.17,10.611-6.399c0-5.753-5.187-6.651-9.819-6.651h-8.261V26.143z"/>
	<path fill="#323031" d="M387.271,2.414h10.451l24.968,57.38h-14.278l-4.936-12.169h-22.289L376.41,59.78l-13.936,0.014
		L387.271,2.414z M392.128,19.095l-6.969,17.816l14.028,0.012L392.128,19.095z"/>
	<path fill="#323031" d="M440.216,13.58l-16.377,0.014l0.013-11.18h45.376V13.58l-16.356,0.014l-0.027,46.187l-12.615,0.014
		L440.216,13.58z"/>
	<path fill="#323031" d="M483.612,2.414h12.642v57.38h-12.642V2.414z"/>
	<path fill="#323031" d="M543.762,0.938c17.895,0,30.933,11.758,30.933,30.167c0,18.396-13.038,30.139-30.933,30.139
		c-17.921,0-30.985-11.757-30.985-30.166C512.776,12.695,525.841,0.938,543.762,0.938z M543.762,49.565
		c10.769-0.012,17.815-7.772,17.815-18.488c0-10.663-7.073-18.475-17.815-18.462c-10.794-0.013-17.842,7.799-17.842,18.476
		C525.92,41.793,532.968,49.565,543.762,49.565z"/>
	<path fill="#323031" d="M591.454,2.414h17.155l24.387,39.854h0.186V2.4h12.615v57.38h-16.521l-25.047-40.843h-0.16V59.78h-12.642
		L591.454,2.414z"/>
</g>
</svg>
